<?xml version="1.0" encoding="UTF-8"?><!DOCTYPE svg PUBLIC "-//W3C//DTD SVG 1.1//EN" "http://www.w3.org/Graphics/SVG/1.1/DTD/svg11.dtd"><svg xmlns="http://www.w3.org/2000/svg" xmlns:xlink="http://www.w3.org/1999/xlink"><defs>
    <style>
      .cls-1 {
        fill: #f5112c;
        fill-rule: evenodd;
      }
    </style>
  
    <style>
    </style>
  
    <style>
      .cls-1 {
        fill: #2429ff;
        fill-rule: evenodd;
      }
    </style>
  
    <style>
      .cls-1 {
        fill: #2429ff;
      }
    </style>
  <style>.cls-1{fill:#2429ff;}</style></defs><symbol id="arrow" viewBox="0 0 13 10">
  
  <path id="arrow.svg" class="cls-1" d="M0,4H13V6H0V4ZM6.5,0.668L12.67,4l-0.95,1.76L5.55,2.428Zm5,4L5.33,8l0.95,1.76,6.17-3.332Z"/>
</symbol><symbol id="circle">
  
  <circle cx="55" cy="55" r="45"/> 
</symbol><symbol id="circle_old" viewBox="0 0 85 85">
  
  <path id="circle.svg" class="cls-1" d="M326.5,361A42.5,42.5,0,1,1,284,403.5,42.5,42.5,0,0,1,326.5,361Zm0,15A27.5,27.5,0,1,1,299,403.5,27.5,27.5,0,0,1,326.5,376Z" transform="translate(-284 -361)"/>
</symbol><symbol id="insta" viewBox="0 0 130 130"><title>insta</title><g id="&#x421;&#x43B;&#x43E;&#x439;_2" data-name="&#x421;&#x43B;&#x43E;&#x439; 2"><g id="Var2"><g id="&#x418;&#x43A;&#x43E;&#x43D;&#x43A;&#x438;"><g id="instagram"><path d="M65,11.73c17.37,0,19.43.07,26.29.38a36,36,0,0,1,12.1,2.24A21.53,21.53,0,0,1,115.72,26.7,36.09,36.09,0,0,1,118,38.78c.31,6.86.38,8.92.38,26.29s-.07,19.43-.38,26.29a36.09,36.09,0,0,1-2.24,12.08,21.57,21.57,0,0,1-12.35,12.34A36.09,36.09,0,0,1,91.29,118c-6.86.31-8.92.38-26.29.38s-19.43-.07-26.29-.38a36.09,36.09,0,0,1-12.08-2.24,21.53,21.53,0,0,1-12.35-12.35A36.09,36.09,0,0,1,12,91.35c-.31-6.86-.38-8.92-.38-26.29s.07-19.43.38-26.29a36.09,36.09,0,0,1,2.24-12.08A21.53,21.53,0,0,1,26.63,14.34,36.09,36.09,0,0,1,38.71,12.1c6.86-.31,8.92-.38,26.29-.38M65,0C47.33,0,45.11.07,38.18.39a47.9,47.9,0,0,0-15.79,3,33.28,33.28,0,0,0-19,19,47.86,47.86,0,0,0-3,15.79C.07,45.12,0,47.33,0,65S.07,84.89.39,91.82a47.86,47.86,0,0,0,3,15.79,33.28,33.28,0,0,0,19,19,47.9,47.9,0,0,0,15.79,3c6.94.32,9.15.39,26.82.39s19.89-.07,26.82-.39a47.9,47.9,0,0,0,15.79-3,33.28,33.28,0,0,0,19-19,47.86,47.86,0,0,0,3-15.79c.32-6.94.39-9.16.39-26.82s-.07-19.89-.39-26.82a47.86,47.86,0,0,0-3-15.79,33.28,33.28,0,0,0-19-19,47.9,47.9,0,0,0-15.79-3C84.88.07,82.67,0,65,0Z"/><path d="M65,31.66A33.41,33.41,0,1,0,98.37,65.09v0A33.41,33.41,0,0,0,65,31.66Zm0,55.1A21.69,21.69,0,1,1,86.67,65.07h0A21.69,21.69,0,0,1,65,86.75Z"/><circle cx="99.71" cy="30.34" r="7.81"/></g></g></g></g></symbol><symbol id="ok" viewBox="0 0 80.04 138.22"><title>ok</title><g id="&#x421;&#x43B;&#x43E;&#x439;_2" data-name="&#x421;&#x43B;&#x43E;&#x439; 2"><g id="Var2"><g id="&#x418;&#x43A;&#x43E;&#x43D;&#x43A;&#x438;"><g id="ok"><path d="M40,71.34A35.67,35.67,0,1,0,4.36,35.67h0A35.7,35.7,0,0,0,40,71.34Zm0-50.43A14.77,14.77,0,1,1,25.26,35.68,14.77,14.77,0,0,1,40,20.91Z"/><path d="M54.46,100.44a67,67,0,0,0,20.69-8.58A10.45,10.45,0,1,0,64,74.16a45.27,45.27,0,0,1-48,0A10.45,10.45,0,0,0,4.89,91.86a67.09,67.09,0,0,0,20.71,8.58l-20,19.94a10.45,10.45,0,0,0,14.79,14.78L40,115.56l19.6,19.6A10.45,10.45,0,0,0,74.4,120.38Z"/></g></g></g></g></symbol><symbol id="point" viewBox="0 0 23 23">
  
  <rect id="point.svg" class="cls-1" width="23" height="23" rx="11.5" ry="11.5"/>
</symbol><symbol id="vk" viewBox="0 0 160.93 91.78"><title>vk</title><g id="&#x421;&#x43B;&#x43E;&#x439;_2" data-name="&#x421;&#x43B;&#x43E;&#x439; 2"><g id="Var2"><g id="&#x418;&#x43A;&#x43E;&#x43D;&#x43A;&#x438;"><path id="vk_alt" data-name="vk alt" d="M78.76,91.38h9.62s2.9-.32,4.39-1.92a6.35,6.35,0,0,0,1.32-4.22s-.19-12.9,5.8-14.81,13.49,12.47,21.52,18c6.08,4.17,10.69,3.26,10.69,3.26l21.49-.3s11.24-.69,5.91-9.53c-.44-.72-3.11-6.54-16-18.49C130,50.86,131.83,52.89,148.06,31.25,158,18.07,161.88,10,160.69,6.55c-1.18-3.28-8.45-2.42-8.45-2.42L128,4.28a5.6,5.6,0,0,0-3.12.55,6.8,6.8,0,0,0-2.13,2.6,141.65,141.65,0,0,1-8.91,18.9C103.08,44.62,98.77,45.55,97,44.45c-4.1-2.65-3.07-10.64-3.07-16.31,0-17.73,2.69-25.12-5.24-27C86.07.51,84.13.09,77.41,0,68.78-.07,61.47,0,57.33,2.07c-2.75,1.35-4.88,4.35-3.58,4.52,1.6.21,5.22,1,7.14,3.59,2.48,3.37,2.39,11,2.39,11S64.7,42,60,44.59c-3.26,1.78-7.74-1.85-17.34-18.45A153.53,153.53,0,0,1,34,8.24a7.31,7.31,0,0,0-2-2.7A10.23,10.23,0,0,0,28.25,4l-23,.15S1.8,4.29.53,5.79C-.6,7.13.44,9.89.44,9.89S18.44,52,38.82,73.23C57.51,92.69,78.73,91.41,78.73,91.41Z"/></g></g></g></symbol><symbol id="wave" viewBox="0 0 327.65 44.02"><title>&#x420;&#x435;&#x441;&#x443;&#x440;&#x441; 1</title><g id="&#x421;&#x43B;&#x43E;&#x439;_2" data-name="&#x421;&#x43B;&#x43E;&#x439; 2"><g id="&#x421;&#x43B;&#x43E;&#x439;_1-2" data-name="&#x421;&#x43B;&#x43E;&#x439; 1"><path class="cls-1" d="M8.69,18a9.71,9.71,0,0,1,5.86,2,41.16,41.16,0,0,1,4.87,5.35c4.4,5.73,8.47,11.75,15,15.34a27.49,27.49,0,0,0,23.78,1.1c7.1-3,11.64-8.85,16.16-14.85,3.11-4.12,6-8.38,11-9a11.43,11.43,0,0,1,5.38,1.12c2.08,1.11,3.88,3.21,5.9,5.74,3.36,4.2,7.92,10.83,13.35,14.61a27.39,27.39,0,0,0,22.87,3.49c7.48-2.21,12.72-7.61,17.31-13.61,1.78-2.32,3.21-4.39,4.63-6a28.82,28.82,0,0,1,3.38-3.43c-.87.7,2.83-1.56,1.77-1.13a9.12,9.12,0,0,1,7.39-.16,14.72,14.72,0,0,1,2.57,1.52c-.9-.67.31.34.39.41A29.83,29.83,0,0,1,172.57,23c3.49,3.94,7.14,10.12,12,14.2,13.15,11.11,30.73,7.58,41.11-5.24,3.87-4.78,6.88-10.38,11.31-12.83a9.63,9.63,0,0,1,11.53,2.1c4.49,4.67,7.77,10.89,13.25,15.67a27.87,27.87,0,0,0,26.2,6.07c8.19-2.39,13.56-8.64,18.51-15.18a43.39,43.39,0,0,1,6.1-7.22A9.34,9.34,0,0,1,319,18c11.56-.32,11.61-18.32,0-18a28.86,28.86,0,0,0-20.51,9.14c-4.85,5-7.31,10.46-12.22,14.66a9.74,9.74,0,0,1-11.69.35c-.57-.4-4-4-4.5-4.71-2.32-2.92-4.4-6-6.85-8.86C252.43-1.83,234.51-3.48,222.24,7.8c-4.82,4.43-7.92,10.23-11.86,14.34-3.09,3.22-7.49,5-11.36,3.25-4.9-2.26-7.74-7.69-11.54-12.51C183.12,7.36,177.62,2.49,170.59.82a27.62,27.62,0,0,0-23.56,5C142,9.8,137.84,16.34,134.42,20.32c-3.69,4.31-6.67,6.7-11.87,5.39-4.11-1-7.43-6-10.63-10.22-4.59-6-9.57-11.54-17-14.08a27.56,27.56,0,0,0-23,2.64C65.69,7.92,61.05,15.32,57.18,20c-4,4.8-8.35,7.68-13.28,5.44-5.35-2.44-8.42-8.85-12.78-14C25.32,4.41,17.82.26,8.69,0-2.9-.31-2.89,17.69,8.69,18Z"/></g></g></symbol><symbol id="yt" viewBox="0 0 114.48 138.47"><title>yt</title><g id="&#x421;&#x43B;&#x43E;&#x439;_2" data-name="&#x421;&#x43B;&#x43E;&#x439; 2"><g id="Var2"><g id="&#x418;&#x43A;&#x43E;&#x43D;&#x43A;&#x438;"><g id="youtube"><path d="M95.57,90.92q-3.46,0-3.47,5.3v3.53H99v-3.5C99,92.68,97.86,90.92,95.57,90.92Z"/><path d="M112.48,71.51a14.46,14.46,0,0,0-12.37-11.26c-14.2-1.59-28.56-1.59-42.87-1.59s-28.68,0-42.87,1.59A14.46,14.46,0,0,0,2,71.5C0,80.17,0,89.63,0,98.56S0,117,2,125.62a14.44,14.44,0,0,0,12.37,11.26c14.19,1.59,28.56,1.59,42.87,1.59s28.67,0,42.87-1.59a14.46,14.46,0,0,0,12.37-11.25c2-8.67,2-18.13,2-27.06S114.48,80.18,112.48,71.51Zm-79.85,7.8H24.37v44H16.68v-44H8.54V72.1H32.66Zm20.9,44H46.61v-4.17c-2.75,3.16-5.36,4.69-7.9,4.69-2.23,0-3.76-.91-4.46-2.84a19.42,19.42,0,0,1-.61-5.68V85.16h6.92v28.09a20.1,20.1,0,0,0,.06,2.69c.17,1.07.69,1.62,1.62,1.62,1.39,0,2.84-1.07,4.37-3.24V85.16h6.92Zm26.28-11.46a30.57,30.57,0,0,1-.7,7.69c-.92,2.84-2.77,4.29-5.53,4.29-2.46,0-4.84-1.37-7.15-4.23v3.7H59.51V72.1h6.92V88.83c2.23-2.75,4.61-4.14,7.15-4.14,2.76,0,4.61,1.45,5.53,4.31a29.6,29.6,0,0,1,.7,7.68Zm26.11-6.37H92.09v6.77c0,3.53,1.16,5.3,3.53,5.3,1.7,0,2.7-.93,3.09-2.78a45.93,45.93,0,0,0,.15-4.69h7.06v1c0,2.23-.09,3.76-.15,4.46a9.85,9.85,0,0,1-1.62,4.14,9.56,9.56,0,0,1-8.37,4.14,9.88,9.88,0,0,1-8.37-3.91c-1.47-1.91-2.22-4.92-2.22-9V97.6c0-4.08.67-7.07,2.14-9a9.84,9.84,0,0,1,8.29-3.91,9.62,9.62,0,0,1,8.16,3.91c1.45,1.93,2.14,4.92,2.14,9Z"/><path d="M69.9,90.92a5,5,0,0,0-3.45,1.68v23.27a5,5,0,0,0,3.45,1.7c2,0,3-1.7,3-5.15V96.13C72.91,92.68,71.89,90.92,69.9,90.92Z"/><path d="M45.24,0H37.37L32.09,20.32,26.59,0H18.44c1.63,4.8,3.33,9.62,5,14.42a127.09,127.09,0,0,1,4.73,16.37v21h7.75v-21ZM66,39.25V25.75c0-4.12-.71-7.13-2.17-9.09a10.37,10.37,0,0,0-14.56-1.73,10.49,10.49,0,0,0-1.73,1.73c-1.49,2-2.19,5-2.19,9.09v13.5c0,4.1.7,7.14,2.19,9.07a10.37,10.37,0,0,0,14.56,1.73,10.89,10.89,0,0,0,1.73-1.73C65.25,46.4,66,43.36,66,39.25Zm-7,1.31c0,3.57-1.08,5.35-3.33,5.35s-3.34-1.79-3.34-5.35V24.35c0-3.57,1.08-5.34,3.34-5.34S59,20.78,59,24.35ZM91.79,51.73V13.18h-7V42.65c-1.55,2.19-3,3.27-4.41,3.27-.94,0-1.48-.55-1.64-1.64a16.46,16.46,0,0,1-.08-2.72V13.18h-7v30.5a19.43,19.43,0,0,0,.62,5.73c.7,2,2.25,2.87,4.5,2.87,2.55,0,5.2-1.55,8-4.74v4.21Z"/></g></g></g></g></symbol></svg>